<svg xmlns="http://www.w3.org/2000/svg" viewBox="0 0 249.09 227.85"><defs><style>.cls-1{fill:#5cdc41;}.cls-10,.cls-12,.cls-13,.cls-14,.cls-17,.cls-19,.cls-2,.cls-21,.cls-22,.cls-24,.cls-25,.cls-28,.cls-3,.cls-33,.cls-35,.cls-36,.cls-37,.cls-38,.cls-39,.cls-4,.cls-40,.cls-41,.cls-43,.cls-7{fill:none;}.cls-2{stroke:#b3ffa1;stroke-width:1.91px;}.cls-2,.cls-33,.cls-41{stroke-miterlimit:10;}.cls-3{stroke:#2f9916;}.cls-10,.cls-12,.cls-13,.cls-14,.cls-17,.cls-19,.cls-21,.cls-22,.cls-24,.cls-25,.cls-28,.cls-3,.cls-35,.cls-36,.cls-37,.cls-38,.cls-39,.cls-4,.cls-40,.cls-41,.cls-43,.cls-7{stroke-linecap:round;}.cls-10,.cls-12,.cls-13,.cls-14,.cls-17,.cls-19,.cls-21,.cls-22,.cls-24,.cls-25,.cls-28,.cls-3,.cls-35,.cls-36,.cls-37,.cls-38,.cls-39,.cls-4,.cls-40,.cls-43,.cls-7{stroke-linejoin:round;}.cls-14,.cls-4,.cls-43,.cls-7{stroke:#1f033c;}.cls-4{stroke-width:1.27px;}.cls-5{fill:#d7e9e9;}.cls-6{fill:#97cecc;}.cls-7{stroke-width:1.43px;}.cls-26,.cls-8{fill:#fff;}.cls-9{fill:#3ec4ff;}.cls-10{stroke:#abe9ff;stroke-width:2px;}.cls-11{fill:#ffd5c7;}.cls-12,.cls-41{stroke:#ffab94;}.cls-12{stroke-width:4px;}.cls-13{stroke:#fff3f0;stroke-width:3px;}.cls-14{stroke-width:1.55px;}.cls-15{fill:#fff3f0;}.cls-16{fill:#ffd297;}.cls-17,.cls-21,.cls-22,.cls-25{stroke:#f9a948;}.cls-17,.cls-19{stroke-width:1.51px;}.cls-18{fill:#ffab94;}.cls-19,.cls-24,.cls-33,.cls-35,.cls-36,.cls-38{stroke:#232144;}.cls-20{fill:#f9a948;}.cls-21{stroke-width:1.13px;}.cls-22{stroke-width:1.52px;}.cls-23{fill:#232144;}.cls-24{stroke-width:1.18px;}.cls-25{stroke-width:2.26px;}.cls-26,.cls-34{opacity:0.5;}.cls-27{fill:#187bb7;}.cls-28,.cls-37,.cls-40{stroke:#fff;}.cls-28{stroke-width:1.94px;}.cls-29{fill:#f6bc58;}.cls-30{fill:#e59015;}.cls-31{fill:#3c5768;}.cls-32,.cls-34{fill:#28424f;}.cls-33,.cls-35,.cls-37{stroke-width:1.49px;}.cls-36{stroke-width:0.75px;}.cls-38{stroke-width:1.12px;}.cls-39{stroke:#a4e7ff;opacity:0.41;}.cls-39,.cls-40{stroke-width:2.53px;}.cls-41{stroke-width:1.44px;}.cls-42{fill:#1f033c;}</style></defs><g id="Layer_2" data-name="Layer 2"><g id="Layer_1-2" data-name="Layer 1"><ellipse class="cls-1" cx="53.74" cy="179.14" rx="11.65" ry="22.57"/><ellipse class="cls-2" cx="53.74" cy="179.14" rx="11.15" ry="21.6"/><path class="cls-3" d="M56.68,157.16a58.57,58.57,0,0,1,5.27,23"/><path class="cls-3" d="M51.86,157.16a58.57,58.57,0,0,0-5.27,23v3.29"/><line class="cls-3" x1="53.76" y1="183.23" x2="53.76" y2="156.88"/><path class="cls-4" d="M50,157.67a6.88,6.88,0,0,1,4-1.38c6.43,0,11.65,10.11,11.65,22.57S60.46,201.44,54,201.44c-5.44,0-10.18-7.17-11.47-16.94a45.21,45.21,0,0,1-.19-5.64c0-8.33,2.33-15.6,5.8-19.51"/><rect class="cls-5" x="36.54" y="183.14" width="41.79" height="10.45"/><rect class="cls-5" x="39.93" y="193.76" width="38.4" height="25.89"/><rect class="cls-6" x="39.93" y="193.76" width="38.4" height="3.49"/><rect class="cls-7" x="39.93" y="193.76" width="38.4" height="25.89"/><circle class="cls-6" cx="46.63" cy="197.47" r="1.48"/><circle class="cls-6" cx="50.41" cy="198.85" r="0.74"/><circle class="cls-6" cx="48.75" cy="201.99" r="0.99"/><rect class="cls-8" x="41.62" y="183.42" width="2.26" height="10.31"/><rect class="cls-8" x="45.29" y="183.42" width="1.61" height="10.31"/><rect class="cls-4" x="36.54" y="183.14" width="41.79" height="10.45"/><path class="cls-9" d="M171.15,130l8.73-.34c-3.51-4.44-16.24-7.76-21.61-9.55l-1.73-1-6.88-1.31-1.4-.58c-17.89,13.72-34.26.27-34.26.27l-1.71.31-7.61,2.33v-1c-5.37,1.79-19.1,6.11-22.61,10.55l4.73.34"/><path class="cls-10" d="M86.94,127.52s5.43-3.39,9.32-4.24"/><path class="cls-11" d="M119.69,102.47v4.08l-1.83,6-2.83,3v1.35s8.19,7,16.8,6.08c0,0,12.71-1.35,15.67-7.3l-3.67-3.51-.28-9Z"/><path class="cls-12" d="M125.76,109.77c4.66,1.56,6.92,1.56,11.3-.14"/><path class="cls-13" d="M120.23,108.29c0,3.86-1.21,6.24-3.83,8.38"/><path class="cls-13" d="M141.75,108.24c-.06,3.85,1.07,6.26,3.65,8.46"/><path class="cls-14" d="M143.32,100.57V109c0,.26,0,.51,0,.76.34,3.67,3.51,6.71,7.65,7.79l9,2.33h0c6.33,1.79,15.9,5.11,20,9.55l.31.34"/><path class="cls-7" d="M119,100.57V109a6.34,6.34,0,0,1,0,.76c-.34,3.67-3.51,6.71-7.66,7.79l-9,2.33h0C96,121.67,86.41,125,82.27,129.43l-.32.34"/><path class="cls-11" d="M162.05,53.25V81c-2.41,15.7-13.13,24.88-27.46,27.46h-6.7c-14.55-2-24.57-12.89-27.46-27.46V47.52a2.43,2.43,0,0,1,2.43-2.43h29.19a2.45,2.45,0,0,0,1.73-.72l2.53-2.53a2.43,2.43,0,0,1,3.44,0l1.7,1.69a2.43,2.43,0,0,0,3.44,0l.45-.45a2.43,2.43,0,0,1,3.44,0l4.27,4.27a2.38,2.38,0,0,0,.69.48L160.65,51A2.43,2.43,0,0,1,162.05,53.25Z"/><path class="cls-15" d="M161.77,51.42V83.19c-2.27,13.83-13.28,22.87-25,25H125.17c-13.24-3.86-22.84-12.75-24.82-26.59l-.21-36.83s9.49,8.13,7.13,10.22c-4.94,4.38-3.15,19.38-3.15,19.38a2.48,2.48,0,0,0,.39,1.32L107,79.49a.4.4,0,0,1-.33.62h0A2.48,2.48,0,0,0,104.2,83c2.1,11.12,8.52,18,18,20.13a29.55,29.55,0,0,0,6.23,1.13h4.24a30,30,0,0,0,11.58-2.75c7.07-3,11.78-9.19,14.53-19.41L157.07,80a6.73,6.73,0,0,1-.28-8.18h0l2-5.21V50Z"/><path class="cls-16" d="M102.13,42.08a8.64,8.64,0,0,1-6.48-3.2.71.71,0,0,0-1.26.35,44.28,44.28,0,0,0-.19,10.54,21.36,21.36,0,0,0,4.67,11.45c.27.32.5,1.55.92,1.51,1-.11.64-2.76,1.26-3.62.28-.39,2.41-.63,2.86-.78,3-1,4-3.07,5.69-5.79a34.07,34.07,0,0,1,1.58,5.26,1.63,1.63,0,0,0,2.3,1.17A40.23,40.23,0,0,0,125,50.18a17.28,17.28,0,0,1,3.65-2.89A7.77,7.77,0,0,1,131,46.17a12,12,0,0,0,5.16-2.94c.41-.39,1-.85,1.46-.58a1.21,1.21,0,0,1,.47.61c.55,1.31.65,2.77,1.18,4.09s1.12,3.46,2.52,3.28c.69-.1,1.92-1.42,2.45-1.85a16.39,16.39,0,0,0,4.19-5.07c1.26,4.93,3.48,10.1,7.19,13.59a3.08,3.08,0,0,0,1.33.6c.36,0,.58-1.06.82-1.32l4.44-4.88.29,11.08a.76.76,0,0,0,.21.52c1.47,1.3,6.48.71,8.25,0,5.64-2.33,7.08-8.95,6.61-14.72a2.32,2.32,0,0,0-.1-.88,1.51,1.51,0,0,0-.88-.59c-1.8-.58-4,.39-5.39-.65-.37-.28,1-1.6.78-2.07-.44-1,.78-3.48,1-4.51,1.17-6.44,1.3-11.46,2.47-17.9L170,24c-.45.17-1.61,1-2,.68s.29-1.21.25-1.52c-.43-3.63.75-7.23,1.92-10.69l1.24-3.64A1.1,1.1,0,0,0,170,7.47c-2.77,1-5.59,2.14-8.46,2.21-3.33.08-6.68-1.44-10-2-4.32-.69-8.57-.44-12.9-1.14A3.43,3.43,0,0,1,137,5.83c-.78-.91.53-3.37-.37-4.15a1.8,1.8,0,0,0-1.23-.32c-5,0-9.89,2.16-13.94,5.15s-7.8,7.23-11.13,11c-.73-1.53-1.64-2-2.37-3.54a2,2,0,0,0-1.15-1.05c-.42-.09-.16-.74-.41-.35C103.65,17,101,20.06,99.35,25s-2.19,11.47-.66,16.42"/><path class="cls-17" d="M171.66,48.33l5.64-.16s.78,10-5.76,14.46"/><path class="cls-18" d="M101.48,61.64c3.51,0,6.6-2.13,8.81-4.7l-1.89-.49c.54,2.15-.38,5.1,2.52,5.84,1.25.32,2.43-.35,3.54-.83s2.33-1,3.46-1.61a34.29,34.29,0,0,0,11.23-9.21c.9-1.13-.69-2.74-1.6-1.6a32.21,32.21,0,0,1-8.85,7.8,47.22,47.22,0,0,1-5.38,2.67c-1.12.47-2.33,1.1-2.47-.56a20.3,20.3,0,0,0-.27-3.11,1.14,1.14,0,0,0-1.89-.5c-1.82,2.11-4.29,4.07-7.21,4a1.13,1.13,0,0,0,0,2.26Z"/><path class="cls-7" d="M101.1,59.31a10.17,10.17,0,0,0,8.68-6.15"/><path class="cls-18" d="M136,45A11.42,11.42,0,0,0,137.61,50c.73,1.2,2,3,3.5,3.33s3.18-1.29,4.24-2.19a12.71,12.71,0,0,0,3.05-3.82l-2.07-.27a33.1,33.1,0,0,0,3.82,7.84c1.52,2.26,3.27,4.67,5.92,5.63,1.37.5,2-1.68.6-2.18-2.19-.8-3.73-3.28-4.93-5.15a30.72,30.72,0,0,1-3.23-6.74,1.15,1.15,0,0,0-2.07-.27,10.6,10.6,0,0,1-2,2.72A12.91,12.91,0,0,1,143.21,50a6.28,6.28,0,0,1-1.45,1c-.36.11-.4,0-.69-.25s-.42-.4-.61-.61a10.07,10.07,0,0,1-1.06-1.52A9,9,0,0,1,138.25,45c-.11-1.44-2.38-1.45-2.26,0Z"/><path class="cls-18" d="M149.9,57.34a9.27,9.27,0,0,0,3.67,3.6,1.28,1.28,0,0,0,.88.12,1.2,1.2,0,0,0,.67-.52,1.18,1.18,0,0,0,.12-.88,1.13,1.13,0,0,0-.52-.67,4.85,4.85,0,0,1-1.07-.65l.23.18A8.09,8.09,0,0,1,152.41,57l.18.23c-.26-.34-.5-.69-.73-1a1.18,1.18,0,0,0-.68-.52,1.15,1.15,0,0,0-.87.11,1.16,1.16,0,0,0-.41,1.55Z"/><path class="cls-18" d="M121.23,60c.71-.47,1.42-.94,2.09-1.47A19.28,19.28,0,0,0,125,57a1.13,1.13,0,0,0-1.6-1.6A21.47,21.47,0,0,1,121.62,57l.23-.18c-.57.44-1.16.83-1.76,1.22a1.13,1.13,0,1,0,1.14,2Z"/><path class="cls-7" d="M148.18,40.71c.13,4.91,1.46,11.31,6.67,16.15a2,2,0,0,0,3.3-.78,8.84,8.84,0,0,1,5.63-5.6"/><path class="cls-8" d="M112.33,18.7c6.5-7.06,13.88-15.12,24-16.12L135.24.64a17.44,17.44,0,0,0-.42,12.06,1.29,1.29,0,0,0,2.49-.69,15.93,15.93,0,0,1-.58-7.32,15.43,15.43,0,0,1,.51-2.11c.07-.21.15-.42.23-.63s-.1.21,0,0c.36-.8-.05-2-1.12-1.94-10.94,1.07-18.79,9.2-25.84,16.87-1.12,1.22.7,3,1.82,1.82Z"/><path class="cls-8" d="M137,9.23a63.37,63.37,0,0,1,8.93.07,54.68,54.68,0,0,1,8.78,1.79,21.67,21.67,0,0,0,16.36-2.51,1.13,1.13,0,0,0-1.14-1.95c-5.1,3.08-10.77,3.4-16.4,1.77A49.72,49.72,0,0,0,137,7c-1.45.08-1.46,2.35,0,2.26Z"/><path class="cls-7" d="M149.08,7.59c1.78.34,3.72.8,5.79,1.41a19.32,19.32,0,0,0,14.67-1.48,1.55,1.55,0,0,1,2.18,1.91c-.54,1.47-1.14,3.19-1.73,5"/><path class="cls-19" d="M136.74,6.85a36.37,36.37,0,0,1,8.87.2"/><path class="cls-7" d="M122.71,6.45c3.56-2.49,7.51-4.62,11.34-5.33a2.18,2.18,0,0,1,2.59,2.4c-.37,2.85-.68,7.24.41,9.32"/><path class="cls-7" d="M110.32,17.6a54.8,54.8,0,0,1,7.33-7.32"/><path class="cls-20" d="M166.66,17.38a28.7,28.7,0,0,0-1.76,7.74A1.16,1.16,0,0,0,166,26.26a1.21,1.21,0,0,0,1.39-1,1.19,1.19,0,0,0-.25-.89.83.83,0,0,0-.15-.17c-.2-.2.13.08.18.38a1.14,1.14,0,0,0-1.39-.8,1.17,1.17,0,0,0-.79,1.4,1.15,1.15,0,0,0,.32.54c.23.23,0,0-.12-.31l.11-.87h0l.41-.4h0l.57-.15L166,24l1.13,1.13A26.87,26.87,0,0,1,168.84,18a1.13,1.13,0,0,0-.79-1.39,1.16,1.16,0,0,0-1.39.79Z"/><path class="cls-7" d="M169,17.54a50.8,50.8,0,0,0-1.72,7.59"/><path class="cls-8" d="M116.69,16.63a61.14,61.14,0,0,1,6.74-6.43,1.13,1.13,0,0,0,0-1.6,1.16,1.16,0,0,0-1.6,0A61.14,61.14,0,0,0,115.09,15a1.13,1.13,0,0,0,1.6,1.6Z"/><path class="cls-8" d="M119.33,16.26a14.28,14.28,0,0,1,1.73-1.91,8.17,8.17,0,0,0,1.76-1.81,1.13,1.13,0,0,0-.4-1.54,1.16,1.16,0,0,0-1.55.4,2.75,2.75,0,0,1-.19.28l.17-.23a11.6,11.6,0,0,1-1.54,1.43,13.4,13.4,0,0,0-1.58,1.78,1.25,1.25,0,0,0-.33.8,1.18,1.18,0,0,0,.33.8,1.15,1.15,0,0,0,.8.33,1.08,1.08,0,0,0,.8-.33Z"/><path class="cls-8" d="M105,13c-5.39,8.25-8.72,18.18-6.6,28.05.35,1.62,2.84.93,2.49-.69-2-9.18,1.34-18.41,6.33-26.05.91-1.4-1.32-2.69-2.22-1.31Z"/><path class="cls-7" d="M98.83,26.82a36.11,36.11,0,0,1,1.49-4.57"/><path class="cls-7" d="M98.57,41a25.6,25.6,0,0,1-.49-10.21"/><path class="cls-7" d="M101.92,18.74a42.94,42.94,0,0,1,3-4.94,1.66,1.66,0,0,1,2.85.23A20.05,20.05,0,0,0,114,21.6"/><path class="cls-8" d="M93.47,39.83a42.09,42.09,0,0,0,2.18,16.25c.47,1.37,2.66.78,2.19-.6a40.19,40.19,0,0,1-2.11-15.65c.09-1.45-2.17-1.44-2.26,0Z"/><path class="cls-7" d="M99.93,63.94s-8.75-8-6.25-24.43A1.19,1.19,0,0,1,95.85,39a7.72,7.72,0,0,0,6.79,3.6"/><path class="cls-21" d="M169.84,39.69c.37-.9.8-2,1.17-2.92a12.66,12.66,0,0,0,.6-2,15,15,0,0,0,.39-2.29c.08-1.59.16-3.22.24-4.81"/><path class="cls-22" d="M170.36,42c.5-1.21,1.07-2.7,1.58-3.92a18.67,18.67,0,0,0,.8-2.67,20.22,20.22,0,0,0,.52-3.08c.11-2.12.21-4.31.32-6.44"/><path class="cls-22" d="M170.81,42c.51-1.21,1.08-2.7,1.58-3.92a17.47,17.47,0,0,0,.8-2.67,20.24,20.24,0,0,0,.53-3.08c.11-2.12.21-4.31.31-6.44"/><path class="cls-21" d="M169.56,37.36c.22-.55.48-1.21.71-1.76a9.76,9.76,0,0,0,.36-1.2,9.11,9.11,0,0,0,.23-1.37c0-1,.09-1.94.14-2.89"/><path class="cls-7" d="M173.85,36.54a44.65,44.65,0,0,1-2.52,7.61l-1,2.18"/><path class="cls-7" d="M161.32,27s8.12-1.16,12-4.79a1,1,0,0,1,1.72.74v3.63a43.89,43.89,0,0,1-.48,6.49"/><circle class="cls-23" cx="166.67" cy="49.66" r="0.78"/><circle class="cls-23" cx="120.04" cy="8.41" r="0.78"/><path class="cls-15" d="M100.17,74.9A7.68,7.68,0,1,1,100,59.56Z"/><path class="cls-11" d="M100.17,74.9c-3.13,0-5.7-3.37-5.75-7.61s2.45-7.7,5.58-7.73Z"/><path class="cls-7" d="M99.73,74.9a7.67,7.67,0,0,1-.17-15.34"/><path class="cls-24" d="M100.39,63.77A6.45,6.45,0,0,0,97.53,65,4.82,4.82,0,0,0,96,67.12"/><path class="cls-11" d="M162.33,74.9a7.68,7.68,0,1,0,.17-15.34Z"/><path class="cls-7" d="M162.77,74.9a7.67,7.67,0,0,0,.17-15.34"/><line class="cls-17" x1="172.59" y1="49.07" x2="175.57" y2="49.07"/><path class="cls-17" d="M175.89,54.07a13.2,13.2,0,0,1-2,4.88"/><path class="cls-19" d="M175.18,59.89a7,7,0,0,1-4.25,3.57"/><path class="cls-7" d="M166.08,42.8l5.18,4.3,3.42-.08a3.36,3.36,0,0,1,3.44,3.59,23.66,23.66,0,0,1-.65,4.08"/><path class="cls-7" d="M105.81,93.16"/><path class="cls-7" d="M162.05,51.7v26a30.8,30.8,0,0,1-30.81,30.81h0"/><path class="cls-7" d="M100.44,51.7v26a30.81,30.81,0,0,0,30.82,30.81h0"/><path class="cls-25" d="M131.08,33.46s.91,10-6.59,16.52"/><path class="cls-25" d="M133.46,34.22s.43,7.65-2.67,10.81"/><path class="cls-7" d="M128.6,47.25s7.1-.87,9.48-5.1c0,0,.37,4.72,1.93,7.39a2.16,2.16,0,0,0,3.23.56,17.33,17.33,0,0,0,5-6"/><path class="cls-20" d="M106.89,48.56A10.62,10.62,0,0,1,109.68,53a17.68,17.68,0,0,1,1.07,5.66,1.29,1.29,0,0,0,2.57,0,19.59,19.59,0,0,0-1.21-6.51,13.18,13.18,0,0,0-3.4-5.38,1.31,1.31,0,0,0-1.82,0,1.29,1.29,0,0,0,0,1.82Z"/><path class="cls-7" d="M106,47.4a16.19,16.19,0,0,1,4.86,11,1.28,1.28,0,0,0,1.82,1.12c5.56-2.47,21.18-10.94,19.28-27.64"/><path class="cls-26" d="M129.74,20.05c-2.06-1.74-4.81-1.94-6.15-.45a2.83,2.83,0,0,0-.68,1.65,6.88,6.88,0,0,0-1.29-.13,6.31,6.31,0,1,0,6.51,6.3,5.63,5.63,0,0,0,0-.58,3.42,3.42,0,0,0,3-1C132.39,24.39,131.8,21.78,129.74,20.05Z"/><path class="cls-9" d="M67.86,166.42c-6.22,9.29-8.61,22.2-9.09,35.16l10.48,10.49L87.35,195"/><path class="cls-27" d="M72.53,166.42c-6.23,9.29-8.61,22.2-9.21,37L73.8,213.87,92,195"/><path class="cls-7" d="M67.86,166.42c-6.22,9.29-8.61,22.2-9.09,35.16"/><path class="cls-11" d="M51.45,217.46a13.76,13.76,0,0,1,27.52,0"/><path class="cls-28" d="M53.15,214.09s1.27-8.4,9.15-9.47"/><path class="cls-7" d="M51.64,216.91c0-8.56,5.86-13.84,13.09-13.84"/><path class="cls-9" d="M192.62,159c4.89,9.93,7.95,20.65,11,31.29,1,3.67,2.11,7.39,2.14,11.2a36.06,36.06,0,0,1-2.17,11.31,11.91,11.91,0,0,1-2.42,4.75c-1.8,1.85-4.51,2.39-7,2.84-3,.53-6.3,1-8.89-.57a10.45,10.45,0,0,1-3.11-3.27c-4.17-6.2-5.91-13.82-5.84-21.3s1.86-14.84,4.28-21.91c1.75-5.12,4.53-10.77,9.78-12.07"/><ellipse class="cls-27" cx="184.8" cy="197.33" rx="16.71" ry="22.93"/><rect class="cls-29" x="0.72" y="217.8" width="247.66" height="9.34"/><rect class="cls-30" x="0.72" y="223.19" width="247.66" height="3.15"/><path class="cls-31" d="M188.26,207.33v8.3a2.14,2.14,0,0,1-2.15,2.14h-108A2.14,2.14,0,0,1,76,215.63v-8.3"/><path class="cls-32" d="M188.26,201.27v8.3a2.14,2.14,0,0,1-2.15,2.14h-108A2.14,2.14,0,0,1,76,209.57v-8.3"/><path class="cls-33" d="M188.26,207.33v8.3a2.14,2.14,0,0,1-2.15,2.14h-108A2.14,2.14,0,0,1,76,215.63v-8.3"/><rect class="cls-31" x="69.11" y="129.92" width="127.04" height="77.44" rx="8.4"/><path class="cls-34" d="M195.65,153.14v45.58a8.39,8.39,0,0,1-8.39,8.39H77a8.39,8.39,0,0,1-8.39-8.39v-4.54C138.07,191.38,177.45,168,195.65,153.14Z"/><path class="cls-34" d="M195.65,141v57.76a8.39,8.39,0,0,1-8.39,8.39H77a8.39,8.39,0,0,1-8.39-8.39V180.26C138.07,177.46,177.45,155.79,195.65,141Z"/><path class="cls-7" d="M188.26,207.33v8.3a2.14,2.14,0,0,1-2.15,2.14h-108A2.14,2.14,0,0,1,76,215.63v-8.3"/><path class="cls-7" d="M219.36,217.8h28.07a.94.94,0,0,1,.94.95v7.44a1,1,0,0,1-.94.95H1.66a1,1,0,0,1-.94-.95v-7.44a.94.94,0,0,1,.94-.95H14.17"/><line class="cls-7" x1="47.16" y1="217.8" x2="212.81" y2="217.8"/><line class="cls-35" x1="22.09" y1="217.8" x2="42.31" y2="217.8"/><path class="cls-7" d="M203.94,190.06a71.38,71.38,0,0,1,1.53,10.17"/><path class="cls-7" d="M196,164c1.61,5.09,4.68,13.3,6.91,21.88"/><path class="cls-7" d="M205.54,205c0,10.15-5.18,12.28-5.18,12.28"/><line class="cls-36" x1="77.64" y1="136.83" x2="73.99" y2="139.33"/><line class="cls-36" x1="76.37" y1="139.68" x2="73.6" y2="141.48"/><line class="cls-36" x1="189.18" y1="198.25" x2="185.53" y2="200.75"/><line class="cls-36" x1="187.91" y1="201.1" x2="185.14" y2="202.9"/><circle class="cls-23" cx="18.33" cy="217.85" r="1.03"/><line class="cls-37" x1="9.01" y1="220.81" x2="17.67" y2="220.81"/><circle class="cls-8" cx="6.06" cy="220.81" r="1.11"/><line class="cls-38" x1="81.7" y1="210.31" x2="81.7" y2="214.48"/><line class="cls-38" x1="85.45" y1="210.31" x2="85.45" y2="214.48"/><line class="cls-38" x1="89.19" y1="210.31" x2="89.19" y2="214.48"/><line class="cls-38" x1="174.51" y1="210.31" x2="174.51" y2="214.48"/><line class="cls-38" x1="178.25" y1="210.31" x2="178.25" y2="214.48"/><line class="cls-38" x1="182" y1="210.31" x2="182" y2="214.48"/><line class="cls-39" x1="79.24" y1="131.64" x2="102.19" y2="131.64"/><line class="cls-40" x1="87.01" y1="131.64" x2="93.77" y2="131.64"/><path class="cls-7" d="M152.09,129.92h35.17a8.39,8.39,0,0,1,8.39,8.39V199a8.4,8.4,0,0,1-8.39,8.4H77a8.4,8.4,0,0,1-8.39-8.4V138.31A8.39,8.39,0,0,1,77,129.92H111.3"/><line class="cls-7" x1="117.95" y1="130.01" x2="145.33" y2="130.01"/><path class="cls-24" d="M131.28,75s1.8,5.58,1.8,7.52"/><path class="cls-24" d="M128.7,85.92s2.78,1.6,5.06,0"/><polyline class="cls-24" points="121.95 91.44 123.98 92.46 139.79 92.46 141.68 91.44"/><path class="cls-41" d="M133.33,98.82s-2.24-1.29-4.08,0"/><circle class="cls-18" cx="131.29" cy="101.23" r="0.82"/><path class="cls-24" d="M133.82,97.1s-2.78-1.6-5.06,0"/><path class="cls-7" d="M128,65.33s-6.84-2.16-12.9-1.31"/><path class="cls-7" d="M137,65.33s6.84-2.16,12.91-1.31"/><ellipse class="cls-15" cx="106.14" cy="70.55" rx="1.13" ry="1.84"/><circle class="cls-15" cx="107.94" cy="67.62" r="0.67"/><ellipse class="cls-15" cx="104.2" cy="65.47" rx="1.52" ry="1.91"/><rect class="cls-42" x="119.27" y="67.59" width="5.08" height="9.04" rx="2.54"/><circle class="cls-8" cx="119.2" cy="71.19" r="1.55"/><rect class="cls-42" x="141.01" y="67.59" width="5.08" height="9.04" rx="2.54"/><circle class="cls-8" cx="140.94" cy="71.19" r="1.55"/><path class="cls-7" d="M114.19,117.24s16.37,13.45,34.25-.27"/><path class="cls-43" d="M134.4,125.76a22.81,22.81,0,0,0,9.83-3.05"/><path class="cls-43" d="M114,120.39a21.06,21.06,0,0,0,2.84,1.67"/><path class="cls-24" d="M162.52,63.77A6.45,6.45,0,0,1,165.38,65a4.82,4.82,0,0,1,1.55,2.1"/><line class="cls-43" x1="72.96" y1="154.06" x2="72.96" y2="176.93"/><line class="cls-43" x1="170.23" y1="203.05" x2="147.36" y2="203.05"/><line class="cls-43" x1="47.36" y1="211.7" x2="39.69" y2="211.7"/><line class="cls-4" x1="41.27" y1="176.22" x2="42.26" y2="176.22"/><line class="cls-4" x1="41.27" y1="179.75" x2="42.26" y2="179.75"/><line class="cls-4" x1="45.76" y1="160.3" x2="46.52" y2="160.94"/><line class="cls-4" x1="61.68" y1="159.82" x2="60.81" y2="160.3"/><line class="cls-4" x1="44.29" y1="165.33" x2="43.45" y2="164.8"/><line class="cls-4" x1="64.25" y1="164.58" x2="63.39" y2="165.06"/></g></g></svg>